<?xml version="1.0" encoding="UTF-8" standalone="no"?>
<svg
   width="24pt"
   height="24pt"
   viewBox="0 0 23.999999 24"
   version="1.1"
   id="svg29"
   sodipodi:docname="ifood-logo.svg"
   inkscape:version="1.1 (1:1.1+202105261517+ce6663b3b7)"
   xmlns:inkscape="http://www.inkscape.org/namespaces/inkscape"
   xmlns:sodipodi="http://sodipodi.sourceforge.net/DTD/sodipodi-0.dtd"
   xmlns="http://www.w3.org/2000/svg"
   xmlns:svg="http://www.w3.org/2000/svg">
  <sodipodi:namedview
     id="namedview31"
     pagecolor="#ffffff"
     bordercolor="#666666"
     borderopacity="1.0"
     inkscape:pageshadow="2"
     inkscape:pageopacity="0.0"
     inkscape:pagecheckerboard="0"
     inkscape:document-units="pt"
     showgrid="false"
     inkscape:zoom="7.7071824"
     inkscape:cx="17.062007"
     inkscape:cy="19.267742"
     inkscape:window-width="1304"
     inkscape:window-height="704"
     inkscape:window-x="62"
     inkscape:window-y="27"
     inkscape:window-maximized="1"
     inkscape:current-layer="svg29"
     width="24pt" />
  <defs
     id="defs8">
    <clipPath
       id="clip1">
      <path
         d="M 295,0 H 404.19922 V 127 H 295 Z m 0,0"
         id="path2" />
    </clipPath>
    <clipPath
       id="clip2">
      <path
         d="m 93,148 h 184 v 69.19922 H 93 Z m 0,0"
         id="path5" />
    </clipPath>
  </defs>
  <g
     id="surface1"
     style="fill:#3c3c3c;fill-opacity:1"
     transform="matrix(0.05436981,0,0,0.05436981,1.0257955,6.7111456)">
    <g
       clip-path="url(#clip1)"
       clip-rule="nonzero"
       id="g12"
       style="fill:#3c3c3c;fill-opacity:1">
      <path
         style="fill:#3c3c3c;fill-opacity:1;fill-rule:evenodd;stroke:none"
         d="m 404.21094,-0.0546875 h -30.83985 l -1.01172,4.7343755 c -2.36328,11.019531 -4.55078,22.734375 -7.07421,33.558593 l -6.22657,-1.003906 c -10.40625,-1.289062 -20.32031,1.34375 -28.74218,6.875 l -4.25782,2.96875 c -2.67187,2 -5.5,4.519531 -7.83593,6.847656 -0.70313,0.695313 -0.98047,1.210938 -1.69922,1.917969 -2.57422,2.527344 -6.05078,7.292969 -8.03125,10.261719 -3.73438,5.605469 -7.36328,12.367187 -9.70313,19.433594 -2.23437,6.75 -4.63281,16.691407 -2.46875,25.074217 1.89063,7.30469 6.70313,13.22656 13.79688,15.35156 7.15234,2.13672 19.32422,-0.7539 24.39843,-3.19921 5.63672,-2.71094 12.84766,-7.52735 15.88282,-13.26172 h 1.48828 c 0,1.76953 -3.49219,13.59765 -3.61719,15.10547 h 30.62891 l 15.83203,-77.773442 c 1.04687,-5.25 2.03125,-10.320313 3.15234,-15.566407 z m 0,0"
         id="path10" />
    </g>
    <path
       style="fill:#3c3c3c;fill-opacity:1;fill-rule:evenodd;stroke:none"
       d="m 237.02344,126.73438 c 13.75781,0 25.8164,-4.6875 36.375,-12.76172 0.72265,-0.5586 1.375,-1.15235 2.09375,-1.73438 3.16015,-2.54687 6.78906,-6.41406 9.30078,-9.63281 2.69922,-3.460939 5.4414,-7.601564 7.39062,-11.539064 3.3125,-6.679687 6.52344,-15.976562 6.52344,-23.902343 0,-7.195313 -0.74219,-11.917969 -4.94922,-17.59375 -1.50781,-2.03125 -3.88281,-4.367188 -5.9375,-5.761719 -1.60937,-1.089844 -3.03125,-2.046875 -4.77734,-2.878906 -5.44141,-2.585938 -12.77344,-4.394532 -18.79297,-4.394532 -9.70313,0 -14.29688,0.585938 -23.375,3.855469 -1.87109,0.671875 -5.97266,2.589844 -7.80469,3.679688 -12.4414,7.425781 -20.96484,16.992187 -27.24219,31.042968 -1.26562,2.832032 -2.05859,5.460938 -3.02734,8.464844 -0.94922,2.941406 -1.44531,6.5 -1.88281,9.816406 l -0.23828,5.441407 c 0.62109,5.453122 0.96484,8.500002 4.21875,13.437502 4.6914,7.10937 13.41406,11.65625 21.61328,13.26953 3.1914,0.63672 6.8125,1.19141 10.51172,1.19141 z m 0,0"
       id="path14" />
    <path
       style="fill:#3c3c3c;fill-opacity:1;fill-rule:evenodd;stroke:none"
       d="m 140.02734,126.73438 c 13.75782,0 25.81641,-4.6875 36.375,-12.76172 3.98047,-3.04688 8.30078,-7.40235 11.39453,-11.36719 5.16797,-6.625001 9.36719,-14.171876 11.69922,-22.335939 2.9375,-10.292968 3.94532,-21.683593 -2.73437,-30.699218 -2.65625,-3.582032 -6.70703,-6.734375 -10.71485,-8.640625 -0.91406,-0.433594 -1.74218,-0.765625 -2.6875,-1.140625 l -2.83984,-0.992188 c -8.73047,-2.84375 -18.5625,-2.875 -27.60547,-1.074219 -5.28906,1.054688 -10.26172,2.851563 -14.87109,5.339844 l -3.71875,2.023438 c -0.64453,0.410156 -1.14063,0.765625 -1.78516,1.195312 -1.26562,0.839844 -2.27734,1.527344 -3.48437,2.464844 -8.80469,6.875 -15.38281,15.535156 -20.22266,26.367187 -1.26562,2.832032 -2.05859,5.460938 -3.02734,8.464844 -0.94922,2.941406 -1.44531,6.5 -1.88281,9.816406 l -0.23829,5.441407 c 0.6211,5.453122 0.96485,8.500002 4.21875,13.437502 2.44532,3.70312 5.2461,6.02344 8.89844,8.33203 6.26172,3.95312 15.60156,6.12891 23.22656,6.12891 z m 0,0"
       id="path16" />
    <path
       style="fill:#3c3c3c;fill-opacity:1;fill-rule:evenodd;stroke:none"
       d="M 65.152344,38.238281 H 54.304688 l -2.5,13.03125 c -0.199219,1.003907 -0.601563,3.78125 -0.902344,4.414063 h 10.632812 l -4.679687,23.1875 c -0.324219,2 -0.785156,3.832031 -1.183594,5.832031 -0.421875,2.101563 -0.699219,3.917969 -1.15625,5.867188 l -2.320312,11.718747 c -1.351563,6.76953 -3.539063,16.625 -4.671875,23.19532 l -4.707032,23.37499 H 73.875 c 0,-1.45312 0.757813,-4.33203 1.042969,-5.76171 L 92.378906,55.46875 h 22.546874 l 2.60547,-12.921875 c 0.26172,-1.320312 0.79688,-2.957031 0.79688,-4.523437 H 95.570313 c 0.08984,-1.0625 0.433593,-2.597657 0.605468,-3.644532 0.621094,-3.785156 1.441407,-6.675781 3.222657,-9.96875 1.890622,-3.511718 6.042972,-6.167968 11.488282,-6.167968 5.88281,0 10.97656,0.230468 16.46094,2.042968 1.17968,0.390625 2.875,1.269532 3.95703,1.359375 L 134.92187,3.5625 C 133.87109,3.058594 131.88281,2.535156 130.54297,2.199219 128.84375,1.773438 127.48828,1.421875 125.6875,1.101563 122.16797,0.46875 118.46875,0.0546875 114.74609,-0.0546875 h -3.8789 C 104.76953,0.128906 98.738281,1.210938 93.4375,3.554688 89.167969,5.445313 83.828125,8.3125 80.519531,11.699219 c -3.148437,3.214844 -4.511718,4.171875 -7.242187,8.285156 -3.660156,5.511719 -6.515625,11.351563 -8.125,18.253906 z m 0,0"
       id="path18" />
    <g
       clip-path="url(#clip2)"
       clip-rule="nonzero"
       id="g22"
       style="fill:#3c3c3c;fill-opacity:1">
      <path
         style="fill:#3c3c3c;fill-opacity:1;fill-rule:evenodd;stroke:none"
         d="m 235.10937,164.60156 c -0.5625,0.83594 -2.41015,2.40235 -3.35156,3.24219 l -1.7539,1.4375 c -4.32813,3.375 -6.85547,5.16016 -11.71094,8.07031 l -6.45703,3.54297 c -1.71094,0.70313 -2.79688,1.38281 -4.50391,2.09375 -11.22656,4.66016 -18.38672,7.19141 -31.02344,8.96484 l -12.24609,0.94532 -6.44141,-0.3711 c -8.67968,-1.1289 -12.61328,-1.49609 -21.51562,-5.07031 -8.44141,-3.39062 -17.84375,-9.20312 -24.21094,-15.57031 -1.14844,-1.15235 -2.14453,-2.14453 -3.29687,-3.29688 -4.94141,-4.9414 -9.183597,-11.42968 -12.320316,-17.67578 -1.21875,-2.42578 -0.15625,-2.05469 -3.046875,-2.05469 0.02344,1.0586 0.476562,2.67969 0.722656,3.7461 1.847656,8.10156 5.089844,16.36328 9.261715,23.28515 1.16016,1.92188 2.25,3.73047 3.54297,5.60547 l 4.03516,5.32032 c 1.76562,2.26562 6.98828,7.8789 9.08984,9.63281 5.33594,4.46094 7.21094,6.07812 13.26953,9.70312 11.29297,6.75782 25.64844,10.9961 40.26953,10.9961 16.82032,0 23.85157,-0.82032 39.51954,-5.15235 1.54296,-0.42578 3.16015,-1.02734 4.80468,-1.57812 4.23047,-1.40625 9.54688,-3.73047 13.32032,-5.60938 0.72265,-0.35937 1.26953,-0.67578 1.92187,-1.05468 3.70703,-2.15625 5.85938,-3.14454 9.90625,-5.83985 l 5.57422,-4 c 1.5,-1.01172 4.16016,-3.57422 5.35937,-4.21094 l 4.46485,12.76563 c 0.82812,2.07031 1.48437,4.25 2.25781,6.46484 0.39063,1.11719 0.76563,2.06641 1.11719,3.13672 0.34375,1.03125 1.0039,2.28516 1.09375,3.375 h 0.42578 c 0,-1.34375 10.41016,-53.02344 12.28125,-62.38281 0.19531,-0.98047 0.60547,-3.57813 0.90625,-4.20313 -0.94922,-0.0195 -1.49609,-0.22265 -2.76563,-0.21484 h -46.58593 c -1.36719,0 -12.09375,-0.16406 -12.10157,-0.16406 -0.73828,0.1914 -0.35156,0.26172 -0.0352,0.55078 l 16.69922,12.71094 c 0.68359,0.51562 1.12109,0.90234 1.78906,1.40234 0.59766,0.44141 1.35156,0.88672 1.73437,1.45703 z m 0,0"
         id="path20" />
    </g>
    <path
       style="fill:#3c3c3c;fill-opacity:1;fill-rule:evenodd;stroke:none"
       d="m 0.0625,124.60938 h 30.84375 l 2.109375,-10.65625 c 0.726563,-3.63672 1.414063,-7.28907 2.125,-10.84766 L 43.6875,59.953125 c 0.347656,-1.742187 0.746094,-3.539062 1.042969,-5.335937 L 47.921875,38.238281 H 17.292969 L 14.082031,54.171875 C 11.949219,64.738281 0.0976563,123.11328 0.0625,124.60938 Z m 0,0"
       id="path24" />
    <path
       style="fill:#3c3c3c;fill-opacity:1;fill-rule:evenodd;stroke:none"
       d="m 20.058594,25.050781 h 29.992187 c 0.945313,0 1.425782,-4.265625 1.753907,-5.90625 L 55.582031,-0.0546875 H 25.375 C 24.433594,0.148438 24.847656,0.179688 24.402344,2.589844 l -3.828125,19.144531 c -0.195313,1.101563 -0.515625,2.273438 -0.515625,3.316406 z m 0,0"
       id="path26" />
  </g>
</svg>
