<?xml version="1.0" encoding="UTF-8" standalone="no"?>
<!-- Generator: Adobe Illustrator 19.0.0, SVG Export Plug-In . SVG Version: 6.00 Build 0)  -->

<svg
   version="1.1"
   id="Layer_1"
   x="0px"
   y="0px"
   viewBox="0 0 24 24"
   xml:space="preserve"
   sodipodi:docname="rappi-logo.svg"
   inkscape:version="1.1 (1:1.1+202105261517+ce6663b3b7)"
   width="24"
   height="24"
   xmlns:inkscape="http://www.inkscape.org/namespaces/inkscape"
   xmlns:sodipodi="http://sodipodi.sourceforge.net/DTD/sodipodi-0.dtd"
   xmlns="http://www.w3.org/2000/svg"
   xmlns:svg="http://www.w3.org/2000/svg"
   xmlns:rdf="http://www.w3.org/1999/02/22-rdf-syntax-ns#"
   xmlns:cc="http://creativecommons.org/ns#"
   xmlns:dc="http://purl.org/dc/elements/1.1/"><metadata
     id="metadata20"><rdf:RDF><cc:Work
         rdf:about=""><dc:format>image/svg+xml</dc:format><dc:type
           rdf:resource="http://purl.org/dc/dcmitype/StillImage" /></cc:Work></rdf:RDF></metadata><defs
     id="defs18" /><sodipodi:namedview
     pagecolor="#ffffff"
     bordercolor="#666666"
     borderopacity="1"
     objecttolerance="10"
     gridtolerance="10"
     guidetolerance="10"
     inkscape:pageopacity="0"
     inkscape:pageshadow="2"
     inkscape:window-width="1304"
     inkscape:window-height="704"
     id="namedview16"
     showgrid="false"
     inkscape:zoom="5.6568542"
     inkscape:cx="1.1490485"
     inkscape:cy="21.831922"
     inkscape:window-x="62"
     inkscape:window-y="27"
     inkscape:window-maximized="1"
     inkscape:current-layer="XMLID_23_"
     inkscape:pagecheckerboard="0"
     width="400px" /><style
     type="text/css"
     id="style2">
	.st0{fill:#FFFCFC;}
	.st1{fill:#F27176;}
	.st2{fill:#FFF8F8;}
</style><g
     id="XMLID_1_"><g
       id="XMLID_23_"><g
   id="g6992"
   transform="matrix(0.06298351,0,0,0.06298351,-7.1749394,-12.922568)"
   style="fill:#3c3c3c;fill-opacity:1"><path
     id="XMLID_31_"
     class="st1"
     d="m 282.8,428.8 c -4.3,2.1 -7.4,6.1 -12.3,7.4 -7.6,2 -10.5,1.2 -14.6,-5.4 -1.5,-2.3 -2.6,-1.9 -4.3,-0.5 -2.1,1.6 -4.2,3.4 -6.5,4.6 -11.9,6.1 -23.9,0.3 -24.9,-13 -1.7,-21.5 5,-40.3 20.8,-55.5 4.6,-4.4 10.5,-6.4 16.7,-7.2 6.4,-0.8 10.6,1.9 14.6,9.6 3.5,-5.9 8.7,-7.4 14.9,-5.9 5.9,1.4 7.8,5.2 5.4,10.8 -4.6,10.7 -9.5,21.2 -12.6,32.5 -0.8,3.1 -2.5,7.6 0.3,9.1 2.7,1.5 5.1,-2.7 7.3,-4.9 3.3,-3.4 5.1,-7.8 6.6,-12.2 3.3,-9.6 6.9,-19.1 11,-28.3 3.7,-8.3 11.6,-10.5 18.6,-4.8 2.2,1.8 3.2,1.3 4.9,-0.2 1.6,-1.4 3.5,-2.6 5.4,-3.6 12.4,-6.5 23.5,-0.3 24.2,13.7 0.9,15.4 -4.7,29 -12.5,41.8 -0.7,1.1 -1.5,2.2 -2.3,3.4 5.9,-0.8 12.7,-7.8 15.6,-16.2 3.8,-11.2 8,-22.2 12.7,-33 4.3,-9.9 10.8,-11.8 19.7,-5.4 1.8,1.3 2.5,0.7 3.7,-0.3 2.1,-1.9 4.5,-3.4 7.1,-4.6 11.8,-5.4 21.9,0.6 23.1,13.6 1.3,15.3 -4.3,28.7 -11.7,41.5 -0.7,1.2 -1.4,2.3 -2,3.4 -0.3,0.4 -1.4,0.6 -0.7,1.3 0.5,0.5 1.2,0.1 1.6,-0.5 7.4,-4 12.1,-10.2 14.6,-18.2 3.6,-11.4 7.7,-22.6 13.6,-33.1 3.1,-5.5 7,-7.3 13.3,-6.2 7.1,1.3 9.1,5 6.3,11.6 -4.5,10.5 -9.4,20.9 -12.3,32.1 -0.8,3 -2.3,7.5 0,8.8 3.1,1.6 5.6,-2.6 7.8,-4.9 2.6,-2.8 4.9,-5.9 7.1,-9 1.7,-2.4 3.7,-3.4 6.3,-1.8 2.7,1.7 1.6,3.9 0.2,6 -6.2,9.5 -12.9,18.6 -22,25.7 -0.9,0.7 -1.8,1.5 -2.8,2.1 -11.4,7.7 -19.9,3.9 -21.7,-10.3 -6.1,4 -12,7.8 -18.6,10.5 -7.6,3.1 -15.5,3.7 -23.5,3.4 -3.7,-0.2 -5.9,-2.8 -9,-5.7 -2.6,9.2 -5.1,17.9 -7.5,26.5 -0.3,1.1 -0.5,2.3 -0.8,3.4 -1.6,7.1 -3.2,8.7 -8.2,8.2 -6.2,-0.6 -11.1,-5.2 -11.3,-10.7 -0.3,-5.3 1.7,-10.1 2.9,-15.1 1.4,-5.6 3.1,-11.1 4.8,-17.3 -15.3,8.1 -29.8,15.9 -47.1,6.4 -2.9,7.4 -4.9,16.1 -7.2,24.6 -0.3,1.1 -0.6,2.3 -0.8,3.4 -1.9,8.2 -3.3,9.5 -9.3,8.5 -7.2,-1.2 -11.6,-6.6 -10.2,-13.3 1.6,-7.8 3.9,-15.4 5.9,-23.2 0.3,-1.1 0.4,-2.3 0.6,-3.4 0.4,-0.3 0.6,-0.6 0.1,-0.9 -0.5,0.2 -0.8,0.6 -1,0.7 z m 53.5,-50.1 c -0.4,-2.2 0.6,-4.4 -1.2,-5.2 -1.9,-0.9 -3,1 -4,2.2 -11,12.3 -16.3,27.1 -18.8,43.1 -0.2,1.6 -0.4,3.7 1.4,4.4 1.5,0.6 2.7,-0.9 3.7,-2 10.7,-12.5 16.2,-27.2 18.9,-42.5 z m 67,0.4 c -0.4,-2.4 0.7,-4.8 -1.2,-5.7 -1.9,-0.9 -3.3,1.2 -4.4,2.5 -10.3,12.5 -16,27 -18.5,42.8 -0.3,1.6 -0.3,3.8 1.2,4.6 1.7,0.9 3,-1.1 4,-2.2 10.6,-12.3 16.2,-26.8 18.9,-42 z m -140,1.1 c -0.7,-2.5 1.2,-6 -1.6,-6.9 -2.5,-0.8 -4.1,2.4 -5.4,4.4 -7.9,12.1 -13.3,25.2 -14.2,39.8 -0.1,1.8 -0.8,4.5 1.5,5.2 1.9,0.6 3.2,-1.5 4.2,-2.9 8.9,-11.8 13.7,-25.2 15.5,-39.6 z"
     style="fill:#3c3c3c;fill-opacity:1"
     inkscape:export-filename="G:\Users\suitedoalex\sites\rappi-logo-7.png"
     inkscape:export-xdpi="14.19946"
     inkscape:export-ydpi="14.19946" /><path
     id="XMLID_30_"
     class="st1"
     d="m 173,413.7 c -1.6,6.4 -3.3,12.7 -4.9,19.1 -1.2,4.9 -3.7,6.7 -8.5,6.1 -9,-1 -14.1,-7.5 -12.3,-16.4 4.8,-23.6 13.2,-46 22.9,-67.9 1.9,-4.3 5.5,-5 9.4,-5.4 14.2,-1.3 16.2,1.4 10.8,14.3 -3.2,7.8 -6.1,15.7 -9.3,23.9 14.1,-3.5 26.5,-20.2 25.9,-34 -0.4,-7.8 -6.1,-13.1 -14.6,-13.3 -15,-0.4 -25.4,7.5 -33.4,19.3 -3.1,4.6 -5.3,9.6 -5.9,15.2 -0.7,6.1 -5.2,8.3 -10.6,5.2 -5.4,-3.1 -7.9,-9.7 -6,-16.6 1.9,-7 5.9,-12.7 11.2,-17.4 19.5,-17.1 41.8,-21.4 66,-12.4 20.6,7.7 24.8,29 9.5,45.7 -6.9,7.6 -15.6,12.4 -25.2,15.7 -3.4,1.1 -4.4,2.7 -4,6.1 1.3,11.7 3.6,23 11,32.7 8.5,11.1 19.9,14 32.7,8.4 1.7,-0.7 3.3,-1.6 5,-2.1 1.7,-0.5 3.3,0 4.3,1.7 1,1.7 0.5,3.1 -0.6,4.6 -9.2,11.5 -30.7,18.4 -44.1,13.9 -13.6,-4.6 -20.2,-15.5 -24.5,-28.3 -1.9,-5.9 -2.7,-12 -4.8,-18.1 z"
     style="fill:#3c3c3c;fill-opacity:1"
     inkscape:export-filename="G:\Users\suitedoalex\sites\rappi-logo-7.png"
     inkscape:export-xdpi="14.19946"
     inkscape:export-ydpi="14.19946" /><path
     id="XMLID_29_"
     class="st1"
     d="m 473.9,341.1 c -0.3,8.4 -7.5,15.2 -15.6,14.9 -8.2,-0.4 -14.5,-7.2 -14.2,-15.6 0.3,-8 7.5,-14.7 15.6,-14.3 7.8,0.3 14.5,7.3 14.2,15 z"
     style="fill:#3c3c3c;fill-opacity:1"
     inkscape:export-filename="G:\Users\suitedoalex\sites\rappi-logo-7.png"
     inkscape:export-xdpi="14.19946"
     inkscape:export-ydpi="14.19946" /><path
     id="XMLID_25_"
     class="st0"
     d="m 412.3,420.3 c -0.4,0.6 -1.2,0.9 -1.6,0.5 -0.7,-0.7 0.4,-0.9 0.7,-1.3 0.2,0.2 0.6,0.5 0.9,0.8 z"
     style="fill:#3c3c3c;fill-opacity:1"
     inkscape:export-filename="G:\Users\suitedoalex\sites\rappi-logo-7.png"
     inkscape:export-xdpi="14.19946"
     inkscape:export-ydpi="14.19946" /></g>
</g></g></svg>
