<?xml version="1.0" encoding="UTF-8" standalone="no"?>
<svg
   id="Capa_1"
   enable-background="new 0 0 512 512"
   height="512"
   viewBox="0 0 512 512"
   width="512"
   version="1.1"
   sodipodi:docname="repartidor.svg"
   inkscape:version="1.1 (1:1.1+202105261517+ce6663b3b7)"
   xmlns:inkscape="http://www.inkscape.org/namespaces/inkscape"
   xmlns:sodipodi="http://sodipodi.sourceforge.net/DTD/sodipodi-0.dtd"
   xmlns="http://www.w3.org/2000/svg"
   xmlns:svg="http://www.w3.org/2000/svg">
  <defs
     id="defs9" />
  <sodipodi:namedview
     id="namedview7"
     pagecolor="#ffffff"
     bordercolor="#666666"
     borderopacity="1.0"
     inkscape:pageshadow="2"
     inkscape:pageopacity="0.0"
     inkscape:pagecheckerboard="0"
     showgrid="false"
     inkscape:zoom="0.54492187"
     inkscape:cx="247.74194"
     inkscape:cy="166.07885"
     inkscape:window-width="1304"
     inkscape:window-height="704"
     inkscape:window-x="62"
     inkscape:window-y="27"
     inkscape:window-maximized="1"
     inkscape:current-layer="g4" />
  <g
     id="g4"
     transform="matrix(-1,0,0,1,511.99799,0)">
    <path
       d="m 484.38519,157.974 h -86.825 c -14.983,0 -27.173,12.196 -27.173,27.188 v 99.934 h -32.476 c 1.805,-6.561 2.474,-14.3 2.035,-23.306 v -0.001 c -0.705,-38.059 -7.611,-70.135 -20.528,-95.337 -10.03,-19.567 -21.735,-31.298 -31.779,-38.311 11.789,-12.121 18.605,-29.364 18.605,-49.251 0,-35.781 -28.543,-64.89 -63.626,-64.89 -35.083,0 -63.626,29.109 -63.626,64.89 0,4.143 3.358,7.5 7.5,7.5 h 5.096 c -0.469,2.83 -0.719,5.714 -0.719,8.643 0,25.216 18.018,46.291 41.84,51.014 -2.497,9.272 -3.738,20.205 -3.733,32.625 l -18.706,16.089 -45.515,3.681 -52.503,-17.356 c -4.812,-1.6 -10.266,-3.408 -14.998002,0.004 -4.663,3.365 -4.663,9.256 -4.663,11.191 v 39.035 c 0,4.143 3.358,7.5 7.500002,7.5 h 8.929 L 95.325188,286.14 c -1.151,3.978 1.141,8.138 5.120002,9.289 3.981,1.157 8.138,-1.141 9.29,-5.119 l 14.902,-51.494 h 21.322 c -26.52,80.872 -11.388,134.854 11.871,189.485 h -13.482 l -56.153002,-62.786 11.874002,-41.02 c 1.152,-3.979 -1.140002,-8.138 -5.119002,-9.289 -3.979,-1.151 -8.138,1.141 -9.29,5.119 l -11.357,39.237 c -35.126,-0.586 -66.5460003,23.632 -74.55300028,58.475 -0.92700002,4.036 1.59199998,8.06 5.62699998,8.988 l 10.6470003,2.45 c -2.72,28.252 15.885,54.907 44.259,61.438 4.309,0.993 8.655,1.483 12.971,1.483 10.644,0 21.101,-2.984 30.350002,-8.781 10.855,-6.802 18.943,-16.802 23.32,-28.62 l 8.401,1.933 c 2.503,0.579 4.877,0.872 7.249,-0.405 2.207,-1.188 3.674,-3.333 4.224,-5.754 0.528,-2.455 0.93,-4.95 1.209,-7.468 h 156.858 c 5.016,31.187 31.551,54.696 63.242,54.696 31.691,0 58.227,-23.509 63.243,-54.696 h 5.724 c 0,0 1.136,0.013 1.395,0.013 2.145,0 5.243,-0.238 7.787,-2.826 1.273,-1.295 2.767,-3.612 2.652,-7.293 -0.211,-7.043 -1.268,-13.848 -3.072,-20.316 5.974,-36.268 0.226,-58.357 -8.295,-75.644 5.387,-3.531 8.959,-9.615 8.959,-16.527 v -20.613 h 37.883 c 14.983,0 27.173,-12.196 27.173,-27.188 v -87.746 c 0.002,-14.991 -12.187,-27.187 -27.171,-27.187 z M 95.639188,470.907 c -9.601,6.017 -20.961,7.93 -31.989,5.391 h -10e-4 c -20.298,-4.672 -33.84,-23.285 -32.853,-43.411 l 81.353002,18.724 c -3.366,7.925 -9.061,14.628 -16.510002,19.296 z M 133.16719,441.041 16.502188,414.195 c 9.003,-24.654 33.231,-40.974 59.714,-39.57 l 57.151002,63.901 c -0.05,0.843 -0.116,1.681 -0.2,2.515 z m 113.285,-130.695 c -2.177,5.742 -2.177,12.821 -2.177,22.62 v 28.302 h -27.463 V 322.44 c 0,-43.898 23.958,-51.721 34.71,-53.012 h 73.529 c -0.296,9.963 -2.544,17.045 -6.812,21.54 -4.974,5.238 -13.485,7.79 -26.021,7.802 l -26.921,0.028 c -9.6,10e-4 -15.94,3.885 -18.845,11.548 z m -2.177,65.921 v 17.908 c -0.068,0 -0.138,0 -0.21,0 h -53.273 c 0.599,-5.554 2.329,-9.852 5.17,-12.826 4.226,-4.422 10.178,-5.082 13.35,-5.082 z m 80.445,-121.838 h -68.207 c -2.739,-8.619 -5.181,-18.057 -7.189,-27.757 l 20.737,-13.46 c 11.32,-7.351 17.209,-17.738 16.157,-28.499 -0.932,-9.539 -7.417,-18.06 -16.521,-21.707 -8.314,-3.33 -17.263,-2.284 -25.172,2.773 0.652,-7.174 1.866,-13.578 3.622,-19.014 3.197,-0.33 6.372,-0.955 9.49,-1.872 6.347,-1.474 12.212,-3.823 17.507,-6.938 14.445,8.63 46.215,36.622 49.576,116.474 z M 194.54119,71.391 c 3.537,-23.964 23.749,-42.39 48.077,-42.39 26.812,0 48.626,22.381 48.626,49.89 0,22.374 -10.729,40.407 -28.029,48.343 V 87.771 c 0,-6.833 -2.615,-15.215 -15.069,-16.349 -0.226,-0.021 -0.453,-0.031 -0.68,-0.031 z m 11.329,23.643 c 0,-2.96 0.337,-5.851 1,-8.643 h 40.228 c 0.463,0.05 0.801,0.104 1.043,0.153 0.039,0.278 0.073,0.678 0.073,1.227 v 43.876 c -1.787,0.263 -3.585,0.396 -5.382,0.397 -0.017,0 -0.034,0 -0.05,0 -20.356,-0.019 -36.912,-16.614 -36.912,-37.01 z m -9.723,115.92 17.764,-1.437 c 1.583,-0.127 3.084,-0.754 4.289,-1.789 l 32.06,-27.575 0.005,-0.005 c 3.1,-2.671 6.409,-4.041 9.631,-4.041 1.434,0 2.851,0.272 4.224,0.822 3.963,1.587 6.777,5.215 7.171,9.241 0.495,5.067 -2.843,10.203 -9.396,14.459 l -35.725,23.188 h -30.021 v -12.863 z m -31.696,2.564 16.696,-1.35 v 11.651 h -19.401 c -2.515,0 -3.128,-2.09 -3.2,-3.843 -0.041,-0.994 0.053,-5.978 5.905,-6.458 z m -17.751,-5.178 c -2.259,3.704 -3.314,8.037 -3.141,12.25 0.045,1.091 0.184,2.142 0.378,3.166 0,0.021 -0.012,0.042 -0.008,0.062 h -36.336 v -28.473 l 39.136,12.937 c -0.012,0.02 -0.018,0.039 -0.029,0.058 z m 15.088,30.478 h 66.601 c 1.449,0 2.868,-0.42 4.083,-1.209 l 3.395,-2.204 c 1.633,7.218 3.493,14.242 5.519,20.876 -15.296,4.515 -39.575,19.106 -39.575,66.158 v 39.581 c -5.262,1.062 -11.487,3.516 -16.694,8.965 -5.489,5.744 -8.624,13.527 -9.376,23.189 h -15.13 c -15.246,-43.938 -21.044,-90.694 1.177,-155.356 z m 12.362,189.458 c -2.772,-6.375 -5.444,-12.726 -7.96,-19.101 h 77.874 c 10.093,0 15.21,-4.595 15.21,-13.656 v -26.752 -28.302 h 59.199 c 4.143,0 7.5,-3.357 7.5,-7.5 0,-4.143 -3.357,-7.5 -7.5,-7.5 h -59.145 c 0.096,-4.26 0.369,-7.744 1.15,-9.802 0.379,-1.001 0.707,-1.865 4.826,-1.865 l 26.928,-0.028 c 16.865,-0.016 28.93,-4.096 36.885,-12.474 0.368,-0.388 0.716,-0.795 1.065,-1.2 h 47.706 53.615 v 20.613 c 0,2.578 -2.173,4.756 -4.745,4.756 h -74.665 c -4.143,0 -7.5,3.357 -7.5,7.5 0,4.143 3.357,7.5 7.5,7.5 h 70.258 c 5.928,11.003 11.26,24.694 10.943,46.325 -14.838,-20.611 -38.859,-33.864 -66.121,-33.864 -21.894,0 -42.438,8.588 -57.849,24.183 -13.675,13.837 -21.888,31.796 -23.578,51.192 z m 193.958,54.723 c -23.446,0 -43.22,-16.893 -48.004,-39.696 h 96.008 c -4.785,22.801 -24.559,39.696 -48.004,39.696 z m 56.524,-54.696 h -113.046 -10.775 c 3.682,-33.913 32.038,-60.377 66.362,-60.377 30.135,0 55.442,19.871 63.823,47.688 0.027,0.088 0.054,0.176 0.084,0.263 1.185,3.991 2.022,8.145 2.475,12.426 z m 71.926,-155.395 c 0,6.721 -5.461,12.188 -12.173,12.188 h -98.998 v -38.731 h 111.171 z m 0,-41.543 h -111.171 v -15.951 h 111.171 z m 0,-30.951 h -111.171 v -15.252 c 0,-6.721 5.461,-12.188 12.173,-12.188 h 86.825 c 6.712,0 12.173,5.468 12.173,12.188 z"
       id="path2"
       style="stroke:#3c3c3c;stroke-opacity:1;fill:#3c3c3c;fill-opacity:1" />
    <path
       style="fill:#3c3c3c;stroke:#3c3c3c;stroke-width:3;stroke-linecap:butt;stroke-linejoin:miter;stroke-miterlimit:4;stroke-dasharray:none;stroke-opacity:1;fill-opacity:1"
       d="M 412.10604,31.531795 H 313.97912"
       id="path421" />
    <path
       style="fill:#3c3c3c;stroke:#3c3c3c;stroke-width:3;stroke-linecap:butt;stroke-linejoin:miter;stroke-miterlimit:4;stroke-dasharray:none;stroke-opacity:1;fill-opacity:1"
       d="M 424.63052,73.463253 H 326.5036"
       id="path1562" />
    <path
       style="fill:#3c3c3c;stroke:#3c3c3c;stroke-width:3;stroke-linecap:butt;stroke-linejoin:miter;stroke-miterlimit:4;stroke-dasharray:none;stroke-opacity:1;fill-opacity:1"
       d="M 415.37667,119.42688 H 317.24975"
       id="path1564" />
  </g>
</svg>
